# xmcd
#
# Track frame offsets: 
#        150
#        31422
#        55177
#        83541
#        109655
#        133716
#        165051
#        185367
#        212643
#        237855
#
# Disc length: 3465 seconds
#
# Revision: 0
# Processed by: cddbd v1.5.2PL0 Copyright (c) Steve Scherf et al.
# Submitted via: ExactAudioCopy v1.1
#
DISCID=730d870a
DTITLE=Bernard Allison Group - In The Mix
DYEAR=2015
DGENRE=Modern Electric Blues
TTITLE0=Five Long Years
TTITLE1=Call Me Momma
TTITLE2=Move From The Hood
TTITLE3=Tell Me Who
TTITLE4=Something's Wrong
TTITLE5=Lust For You
TTITLE6=I Had It All The Time
TTITLE7=I'd Rather Be Blind
TTITLE8=Set Me Free
TTITLE9=Moving On Up
EXTD=
EXTT0=
EXTT1=
EXTT2=
EXTT3=
EXTT4=
EXTT5=
EXTT6=
EXTT7=
EXTT8=
EXTT9=
PLAYORDER=
